<svg xmlns="http://www.w3.org/2000/svg" viewBox="0 0 794 204"><g fill="#425363"><path d="M255.4 188.5v-25c0-6.8-3.5-8.9-8.6-8.9-4.7 0-9 2.9-11.3 5.9v27.9h-5.9v-38.2h5.9v5.5c2.7-3.2 7.9-6.5 13.7-6.5 7.9 0 12.1 4 12.1 12.3v26.8h-5.9zM269 169.3c0-11.1 7.9-20 18.8-20 11.6 0 18.4 9 18.4 20.5v1.5h-30.9c.5 7.2 5.5 13.2 13.7 13.2 4.4 0 8.8-1.7 11.9-4.9l2.9 3.9c-3.9 3.8-9 5.9-15.2 5.9-11.4 0-19.6-8.2-19.6-20.1zm18.8-15.1c-8.2 0-12.2 6.9-12.5 12.7h25.1c-.1-5.7-3.9-12.7-12.6-12.7zM315 180.5v-25h-6.3v-5.2h6.3v-10.4h6v10.4h7.8v5.2h-7.8v23.7c0 2.9 1.3 4.9 3.8 4.9 1.7 0 3.2-.8 4-1.7l1.7 4.5c-1.5 1.4-3.6 2.5-7 2.5-5.6 0-8.5-3.2-8.5-8.9zM368.2 188.5l-10-30.7-10 30.7h-5.9l-12.2-38.2h6.2l9.3 30.5 10.1-30.5h5.1l10 30.5 9.3-30.5h6.3l-12.2 38.2h-6zM389 169.3c0-11.1 7.3-20 18.9-20 11.6 0 18.9 8.9 18.9 20s-7.3 20.1-18.9 20.1c-11.6 0-18.9-9-18.9-20.1zm31.6 0c0-7.8-4.5-14.7-12.7-14.7s-12.7 7-12.7 14.7c0 7.8 4.5 14.8 12.7 14.8s12.7-7 12.7-14.8zM434.5 188.5v-38.2h5.9v6.1c3.1-4 7.5-7 12.7-7v6.1c-.7-.1-1.4-.2-2.3-.2-3.7 0-8.7 3-10.4 6.1v27.1h-5.9zM484.7 188.5l-13.7-17.2-6.4 6.3v10.9h-5.9v-52.8h5.9v34.9l20.1-20.3h7.5l-16.9 17.3 17 20.9h-7.6zM512.6 183.4l3-4.3c2.5 2.9 7.4 5.5 12.6 5.5 5.9 0 9.1-2.8 9.1-6.6 0-9.3-23.7-3.6-23.7-17.7 0-6 5.1-11 14.2-11 6.6 0 11.2 2.5 14.2 5.5l-2.8 4.1c-2.3-2.8-6.4-4.8-11.4-4.8-5.2 0-8.5 2.6-8.5 6 0 8.3 23.7 2.9 23.7 17.7 0 6.4-5.1 11.6-15 11.6-6.3 0-11.5-2-15.4-6zM548.5 169.3c0-11.1 7.9-20 18.8-20 11.6 0 18.4 9 18.4 20.5v1.5h-30.9c.5 7.2 5.5 13.2 13.7 13.2 4.4 0 8.8-1.7 11.9-4.9l2.9 3.9c-3.9 3.8-9 5.9-15.2 5.9-11.4 0-19.6-8.2-19.6-20.1zm18.8-15.1c-8.2 0-12.2 6.9-12.5 12.7h25.1c-.1-5.7-3.9-12.7-12.6-12.7zM591.1 169.3c0-11.3 7.7-20 19.1-20 7 0 11.1 2.9 14 6.6l-4 3.6c-2.5-3.5-5.8-4.9-9.7-4.9-8.1 0-13.2 6.2-13.2 14.7s5.1 14.8 13.2 14.8c4 0 7.2-1.6 9.7-5l4 3.6c-2.9 3.8-7 6.7-14 6.7-11.4 0-19.1-8.8-19.1-20.1zM656.4 188.5v-5.4c-2.9 3.3-7.9 6.3-13.6 6.3-8 0-12.2-4-12.2-12.2v-27h5.9v25.2c0 6.7 3.4 8.7 8.6 8.7 4.6 0 9-2.7 11.2-5.8v-28.1h5.9v38.2h-5.8zM672.2 188.5v-38.2h5.9v6.1c3.1-4 7.5-7 12.7-7v6.1c-.7-.1-1.4-.2-2.3-.2-3.7 0-8.7 3-10.4 6.1v27.1h-5.9zM695.3 140.8c0-2.2 1.8-4 4-4s4 1.8 4 4-1.7 4-4 4c-2.2 0-4-1.8-4-4zm1 47.7v-38.2h5.9v38.2h-5.9zM713.4 180.5v-25h-6.4v-5.2h6.3v-10.4h6v10.4h7.8v5.2h-7.8v23.7c0 2.9 1.3 4.9 3.8 4.9 1.7 0 3.2-.8 4-1.7l1.7 4.5c-1.5 1.4-3.6 2.5-7 2.5-5.6 0-8.4-3.2-8.4-8.9zM732.3 198c.9.4 2.3.6 3.2.6 2.6 0 4.4-.9 5.7-4l2.5-5.8-16-38.6h6.5l12.7 31.3 12.7-31.3h6.4l-19.2 46c-2.3 5.5-6.2 7.7-11.2 7.8-1.3 0-3.2-.2-4.3-.6l1-5.4z"/><path d="M230.7 102.5v-45.7h-14.6v-20.2h14.6v-24h23.1v24h17.8v20.2h-17.8v39.5c0 5.6 2.9 9.8 8 9.8 3.5 0 6.7-1.3 8-2.7l4.9 17.6c-3.5 3.1-9.6 5.6-19.3 5.6-16.2.1-24.7-8.3-24.7-24.1zM276.9 80.5c0-25.5 18.9-46 45.5-46 26.4 0 44 19.6 44 48.2v5.5h-65.3c1.6 10.7 10.4 19.7 25.3 19.7 7.5 0 17.6-3.1 23.3-8.6l10.4 15.3c-8.7 8-22.6 12.2-36.2 12.2-26.8-.1-47-18.1-47-46.3zm45.5-27.1c-14.4 0-20.6 10-21.5 18.7h43.3c-.7-8.4-6.5-18.7-21.8-18.7zM434.4 124.5v-53.1c0-12.2-6.4-16.4-16.2-16.4-9.1 0-16 5.1-20 10.2v59.3h-23.1v-87.9h23.1v11.3c5.6-6.6 16.6-13.5 30.7-13.5 19.5 0 28.8 10.9 28.8 28v62h-23.3zM523.5 124.5v-9.3c-6 7.3-16.4 11.5-27.8 11.5-14 0-30.4-9.5-30.4-29.1 0-20.7 16.4-28.4 30.4-28.4 11.8 0 22 3.8 27.8 10.7v-11.1c0-8.9-7.6-14.7-19.3-14.7-9.3 0-18 3.6-25.3 10.4l-9.1-16.2c10.7-9.6 24.6-13.8 38.4-13.8 20.2 0 38.6 8 38.6 33.3v56.8h-23.3zm0-21.1v-10.9c-3.8-5.1-11.1-7.8-18.6-7.8-9.1 0-16.6 4.9-16.6 13.3s7.5 13.1 16.6 13.1c7.5-.1 14.8-2.6 18.6-7.7zM556.7 124.5v-121.4h23.1v44.8c6.9-9.1 16.7-13.5 27.1-13.5 22.4 0 38.9 17.5 38.9 46 0 29.5-16.7 46.2-38.9 46.2-10.6 0-20.2-4.7-27.1-13.5v11.3h-23.1zm43.1-18.4c13.3 0 22.2-10.4 22.2-25.7 0-15.1-8.9-25.5-22.2-25.5-7.6 0-16 4.4-20 10.2v31.1c4 5.7 12.4 9.9 20 9.9zM653.6 124.5v-121.4h23.1v121.4h-23.1zM685.4 80.5c0-25.5 18.9-46 45.5-46 26.4 0 44 19.6 44 48.2v5.5h-65.3c1.6 10.7 10.4 19.7 25.3 19.7 7.5 0 17.7-3.1 23.3-8.6l10.4 15.3c-8.7 8-22.6 12.2-36.2 12.2-26.8-.1-47-18.1-47-46.3zm45.5-27.1c-14.4 0-20.6 10-21.5 18.7h43.3c-.7-8.4-6.5-18.7-21.8-18.7z"/><path d="M783.2 41.5c-5.9 0-10.7-4.8-10.7-10.7 0-6 4.8-10.7 10.7-10.7 6 0 10.7 4.8 10.7 10.7.1 5.9-4.7 10.7-10.7 10.7zm0-20c-5.1 0-9.3 4.1-9.3 9.3 0 5.1 4.2 9.3 9.3 9.3 5.1 0 9.3-4.2 9.3-9.3 0-5.2-4.2-9.3-9.3-9.3zm3 15.5l-3.2-4.9h-2.2v4.9h-1.6v-12.3h5c2.1 0 3.9 1.5 3.9 3.7 0 2.7-2.4 3.6-3.1 3.6l3.3 4.9h-2.1zm-2.1-10.9h-3.4v4.6h3.4c1.1 0 2.2-1 2.2-2.2.1-1.4-1.1-2.4-2.2-2.4z"/></g><g fill="#00a5b5"><path d="M169 29.9c.5 2 2.5 9.3 4.4 16.3l14.8 55.1c1.9 7 3.8 14.3 4.4 16.3.7 3-.2 6.2-2.3 8.4l-11.9 11.9-40.4 40.4-11.9 11.9c-2.2 2.1-5.5 2.9-8.4 2.2-2-.5-9.4-2.5-16.3-4.4l-55.1-14.8c-7-1.9-14.3-3.8-16.3-4.4-1.5-.4-2.8-1.3-3.9-2.3-1.1-1.1-1.9-2.3-2.3-3.9-.5-2-2.5-9.3-4.4-16.3l-14.8-54.8c-1.9-7-3.8-14.3-4.4-16.3l2.1-.6 2.2-.6c.5 2 2.5 9.4 4.3 16.3l14.8 55.1c1.9 7 3.8 14.3 4.4 16.3.1.5.6 1.3 1.2 1.9.6.6 1.4 1.1 1.9 1.2 2 .5 9.4 2.5 16.3 4.4l55.1 14.8c7 1.9 14.3 3.8 16.3 4.4 1 .4 3.5-.3 4.2-1.1l11.9-11.9 40.3-40.3 11.9-11.9c.8-.7 1.5-3.2 1.1-4.2-.5-2-2.5-9.4-4.4-16.3l-14.8-55.1c-1.9-7-3.8-14.3-4.4-16.3-.1-.5-.6-1.3-1.2-1.9-.6-.6-1.4-1.1-1.9-1.2-2-.5-9.3-2.5-16.3-4.4l-54.9-15c-6.9-1.8-14.3-3.8-16.3-4.3-1-.4-3.5.3-4.2 1.1l-11.9 11.9-40.4 40.4-11.9 11.9c-.9.7-1.5 3.2-1.1 4.2l-2.1.6-2.1.6c-.7-3 .2-6.2 2.3-8.4 1.5-1.5 6.8-6.8 11.9-12l40.3-40.3c5.1-5.2 10.4-10.5 11.9-12 2.2-2.1 5.4-3 8.4-2.3 2 .5 9.3 2.5 16.3 4.4l55.1 14.8c7 1.9 14.3 3.8 16.3 4.4 1.5.4 2.8 1.3 3.9 2.3 1.1 1.1 1.9 2.3 2.3 3.8zM100 15.3c1.5.9 6.9 4 12.1 7l40.7 23.5c5.1 3 10.6 6.1 12.1 7 2.1 1.3 3.5 3.7 3.6 6.2v74.8c-.1 2.5-1.5 4.9-3.6 6.2-1.5.9-6.9 4-12.1 7l-40.7 23.5c-5.2 3-10.6 6.1-12.1 7-1.1.6-2.4.9-3.6.9-1.2 0-2.5-.2-3.6-.9-1.5-.8-6.9-4-12-7l-40.8-23.5c-5.1-3-10.6-6.1-12.1-7l.9-1.6.9-1.6c1.5.9 6.9 4 12.1 7l40.7 23.5c5.1 3 10.6 6.1 12.1 7 .4.2 1.1.4 1.8.4s1.4-.2 1.8-.4c1.5-.9 6.9-4 12.1-7l40.7-23.5c5.2-3 10.6-6.1 12.1-7 .8-.4 1.9-2.2 1.8-3.1v-74.8c.1-.9-1-2.7-1.8-3.1-1.5-.8-6.9-4-12.1-7l-40.7-23.5c-5.1-3-10.6-6.1-12.1-7-.4-.2-1.1-.4-1.8-.4s-1.4.2-1.8.4c-1.5.9-6.9 4-12.1 7l-40.7 23.6c-5.1 3-10.6 6.1-12.1 7-.8.4-1.9 2.2-1.8 3.1v74.8c-.1.9 1 2.7 1.8 3.1l-.9 1.6-.8 1.5c-2.2-1.3-3.5-3.7-3.6-6.2v-74.8c.1-2.5 1.4-4.9 3.6-6.2 1.5-.9 6.9-4 12.1-7l40.7-23.5c5.1-3 10.6-6.1 12-7 1.1-.6 2.4-.9 3.6-.9 1.2 0 2.5.3 3.6.9zM47.6 42.6c1.5-.4 6.9-1.8 12-3.2l40.4-10.9c5.1-1.4 10.5-2.8 12-3.2 2.2-.5 4.6.1 6.2 1.7l8.8 8.8 29.6 29.6 8.8 8.8c1.5 1.6 2.2 4 1.7 6.2-.4 1.5-1.8 6.9-3.2 12l-10.8 40.4c-1.4 5.1-2.8 10.5-3.2 12-.3 1.1-.9 2-1.7 2.8-.8.8-1.7 1.4-2.8 1.7-1.5.4-6.9 1.8-12 3.2l-40.4 10.8c-5.1 1.4-10.5 2.8-12 3.2l-.4-1.5-.4-1.6c1.5-.4 6.9-1.8 12-3.2l40.4-10.8c5.1-1.4 10.5-2.8 12-3.2.4-.1.9-.4 1.4-.9.4-.5.8-1 .9-1.4.4-1.5 1.8-6.9 3.2-12l10.8-40.4c1.4-5.1 2.8-10.5 3.2-12 .3-.7-.2-2.6-.8-3.1l-8.8-8.8-29.8-29.6-8.8-8.8c-.5-.6-2.3-1.1-3.1-.8-1.5.4-6.9 1.8-12 3.2l-40.4 10.9c-5.1 1.4-10.5 2.8-12 3.2-.4.1-.9.4-1.4.9-.5.4-.8 1-.9 1.4-.4 1.5-1.8 6.9-3.2 12l-10.8 40.4c-1.4 5.1-2.8 10.5-3.2 12-.3.7.2 2.6.8 3.1l8.8 8.8 29.6 29.6 8.8 8.8c.5.6 2.4 1.1 3.1.8l.4 1.6.4 1.5c-2.2.5-4.5-.1-6.2-1.7l-8.8-8.8-29.6-29.6-8.8-8.8c-1.5-1.6-2.2-4-1.7-6.2.4-1.5 1.8-6.9 3.2-12l10.8-40.4c1.4-5.1 2.8-10.5 3.2-12 .3-1.1.9-2.1 1.7-2.8 1-.8 1.9-1.4 3-1.7zM37 155.8c-32.8-32.8-32.8-86 0-118.8s86-32.8 118.8 0 32.8 86 0 118.8-86 32.8-118.8 0zm116-2.6c31.3-31.3 31.4-82.1.2-113.3-31.2-31.3-82-31.2-113.3.2-31.4 31.3-31.4 82-.2 113.3 31.3 31.2 82 31.1 113.3-.2zM99.1 35.6c1.1.6 5.1 2.9 8.9 5.2l30.1 17.4c3.8 2.2 7.8 4.5 8.9 5.2 1.6 1 2.6 2.7 2.7 4.6v55.39999999999999c-.1 1.9-1.1 3.6-2.7 4.6-1.1.6-5.1 3-8.9 5.2l-30.1 17.3c-3.8 2.2-7.8 4.5-8.9 5.2-.8.5-1.7.7-2.7.7-.9 0-1.8-.2-2.7-.7-1.1-.6-5.1-2.9-8.9-5.2l-30.2-17.4c-3.8-2.2-7.8-4.5-8.9-5.2l.7-1.2.7-1.2c1.1.6 5.1 3 8.9 5.2l30.2 17.4c3.8 2.2 7.8 4.5 8.9 5.2.3.2.8.3 1.3.3s1.1-.1 1.3-.3c1.1-.6 5.1-3 8.9-5.2l30.2-17.4c3.8-2.2 7.8-4.5 8.9-5.2.6-.3 1.4-1.6 1.3-2.3v-55.3c.1-.7-.7-2-1.3-2.3-1.1-.6-5.1-3-8.9-5.2l-30.1-17.4c-3.8-2.2-7.8-4.5-8.9-5.1-.3-.2-.8-.3-1.3-.3s-1.1.1-1.3.3c-1.1.6-5.1 2.9-8.9 5.1l-30.3 17.4c-3.8 2.2-7.8 4.5-8.9 5.2-.6.3-1.4 1.6-1.3 2.3v55.39999999999999c-.1.7.7 2 1.3 2.3l-.7 1.2-.7 1.2c-1.6-1-2.6-2.7-2.7-4.6v-55.39999999999999c.1-1.9 1.1-3.6 2.7-4.6 1.1-.6 5.1-3 8.9-5.2l30.2-17.4c3.8-2.2 7.8-4.5 8.9-5.2.8-.5 1.8-.7 2.7-.7.9 0 1.8.2 2.7.7zM52.4 139.6c-24.3-24.3-24.3-63.7 0-88 24.3-24.3 63.7-24.3 88 0 24.3 24.3 24.3 63.7 0 88-24.3 24.3-63.7 24.3-88 0zm85.9-1.9c23.2-23.2 23.3-60.8.1-83.9-23.1-23.1-60.7-23.1-83.9.1-23.2 23.2-23.3 60.8-.1 83.9 23.2 23.1 60.7 23.1 83.9-.1z"/></g></svg>