<?xml version="1.0" encoding="utf-8"?>
<!-- Generator: Adobe Illustrator 19.0.0, SVG Export Plug-In . SVG Version: 6.00 Build 0)  -->
<svg version="1.1" id="Layer_1" xmlns="http://www.w3.org/2000/svg" xmlns:xlink="http://www.w3.org/1999/xlink" x="0px" y="0px"
	 viewBox="247 -71 694 200" style="enable-background:new 247 -71 694 200;" xml:space="preserve">
<style type="text/css">
	.st0{fill:#ED8B00;}
	.st1{fill:#FFFFFF;}
	.st2{fill:#2C2A29;}
</style>
<g id="XMLID_1_">
	<g id="XMLID_41_">
		<g id="XMLID_42_">
			<path id="XMLID_124_" class="st0" d="M418.4-21.7l-82.7-47.7c-1-0.6-2.3-0.6-3.4,0l-82.7,47.7c-1,0.6-1.7,1.7-1.7,2.9v95.5
				c0,1.2,0.6,2.3,1.7,2.9l82.7,47.7c0.5,0.3,1.1,0.4,1.7,0.4c0.6,0,1.2-0.2,1.7-0.5l82.7-47.7c1-0.6,1.7-1.7,1.7-2.9v-95.5
				C420.1-19.9,419.5-21.1,418.4-21.7z"/>
		</g>
	</g>
	<g id="XMLID_38_">
		<path id="XMLID_85_" class="st1" d="M338.4-3c2.5,3.5,3.7,7.6,3.7,12.4c0,5-1.3,8.9-3.8,12c-1.4,1.7-3.5,3.2-6.2,4.6
			c4.1,1.5,7.3,3.9,9.4,7.2c2.1,3.3,3.2,7.2,3.2,11.9c0,4.8-1.2,9.1-3.6,12.9c-1.5,2.5-3.5,4.7-5.8,6.4c-2.6,2-5.7,3.3-9.2,4.1
			c-3.5,0.7-7.4,1.1-11.5,1.1h-36.6v-81.2h39.3C327.3-11.5,334.3-8.6,338.4-3z M294.3,2.5v17.9h19.7c3.5,0,6.4-0.7,8.6-2
			c2.2-1.3,3.3-3.7,3.3-7.1c0-3.8-1.5-6.3-4.4-7.5c-2.5-0.8-5.7-1.3-9.6-1.3H294.3z M294.3,33.8v21.7H314c3.5,0,6.3-0.5,8.2-1.4
			c3.6-1.8,5.3-5.1,5.3-10.1c0-4.2-1.7-7.1-5.2-8.7c-1.9-0.9-4.6-1.3-8.1-1.4H294.3z"/>
		<path id="XMLID_80_" class="st1" d="M388.6,8.1c0.2,0,0.7,0,1.3,0.1v16.1c-1-0.1-1.9-0.2-2.6-0.2c-0.8,0-1.4-0.1-1.9-0.1
			c-6.3,0-10.6,2.1-12.7,6.2c-1.2,2.3-1.8,5.9-1.8,10.7v28.7h-15.8V9.5h15V20c2.4-4,4.5-6.7,6.3-8.2c2.9-2.5,6.8-3.7,11.5-3.7
			C388.2,8.1,388.4,8.1,388.6,8.1z"/>
	</g>
	<g id="XMLID_3_">
		<path id="XMLID_44_" class="st2" d="M519-3c2.5,3.5,3.7,7.6,3.7,12.4c0,5-1.3,8.9-3.8,12c-1.4,1.7-3.5,3.2-6.2,4.6
			c4.1,1.5,7.3,3.9,9.4,7.2c2.1,3.3,3.2,7.2,3.2,11.9c0,4.8-1.2,9.1-3.6,12.9c-1.5,2.5-3.5,4.7-5.8,6.4c-2.6,2-5.7,3.3-9.2,4.1
			c-3.5,0.7-7.4,1.1-11.5,1.1h-36.6v-81.2h39.3C507.8-11.5,514.8-8.6,519-3z M474.9,2.5v17.9h19.7c3.5,0,6.4-0.7,8.6-2
			c2.2-1.3,3.3-3.7,3.3-7.1c0-3.8-1.5-6.3-4.4-7.5c-2.5-0.8-5.7-1.3-9.6-1.3H474.9z M474.9,33.8v21.7h19.7c3.5,0,6.3-0.5,8.2-1.4
			c3.6-1.8,5.3-5.1,5.3-10.1c0-4.2-1.7-7.1-5.2-8.7c-1.9-0.9-4.6-1.3-8.1-1.4H474.9z"/>
		<path id="XMLID_6_" class="st2" d="M569.2,8.1c0.2,0,0.7,0,1.3,0.1v16.1c-1-0.1-1.9-0.2-2.6-0.2c-0.8,0-1.4-0.1-1.9-0.1
			c-6.3,0-10.6,2.1-12.7,6.2c-1.2,2.3-1.8,5.9-1.8,10.7v28.7h-15.8V9.5h15V20c2.4-4,4.5-6.7,6.3-8.2c2.9-2.5,6.8-3.7,11.5-3.7
			C568.7,8.1,569,8.1,569.2,8.1z"/>
		<path id="XMLID_107_" class="st2" d="M627,62.3c-5.1,6.3-12.8,9.4-23.1,9.4c-10.3,0-18-3.1-23.1-9.4s-7.6-13.8-7.6-22.6
			c0-8.7,2.5-16.2,7.6-22.5s12.8-9.5,23.1-9.5c10.3,0,18,3.2,23.1,9.5c5.1,6.3,7.6,13.9,7.6,22.5C634.6,48.5,632,56,627,62.3z
			 M614.4,53.6c2.5-3.3,3.7-7.9,3.7-13.9s-1.2-10.6-3.7-13.9c-2.5-3.2-6-4.9-10.6-4.9c-4.6,0-8.1,1.6-10.6,4.9
			c-2.5,3.2-3.7,7.9-3.7,13.9s1.2,10.7,3.7,13.9c2.5,3.3,6,4.9,10.6,4.9C608.4,58.5,612,56.8,614.4,53.6z"/>
		<path id="XMLID_2_" class="st2" d="M717.9,9.8c2.6,1,4.9,2.8,7,5.4c1.7,2.1,2.8,4.7,3.4,7.7c0.4,2,0.6,5,0.6,8.9l-0.1,37.9h-16.1
			V31.4c0-2.3-0.4-4.2-1.1-5.6c-1.4-2.8-4-4.2-7.7-4.2c-4.3,0-7.3,1.8-9,5.4c-0.8,1.9-1.3,4.2-1.3,6.9v35.8h-15.8V33.8
			c0-3.6-0.4-6.2-1.1-7.8c-1.3-2.9-3.9-4.4-7.8-4.4c-4.5,0-7.5,1.5-9,4.4c-0.8,1.7-1.3,4.1-1.3,7.4v36.1h-15.9v-60H658v8.8
			c1.9-3.1,3.8-5.3,5.5-6.7c3-2.4,7-3.5,11.8-3.5c4.6,0,8.3,1,11.1,3c2.3,1.9,4,4.3,5.2,7.2c2.1-3.5,4.6-6.1,7.7-7.8
			c3.2-1.7,6.8-2.5,10.8-2.5C712.8,8.2,715.4,8.7,717.9,9.8z"/>
		<path id="XMLID_112_" class="st2" d="M756.7,2.4h-15.9v-14.5h15.9V2.4z M740.7,9.5h15.9v60.1h-15.9V9.5z"/>
		<path id="XMLID_115_" class="st2" d="M784.7,9.5v36.2c0,3.4,0.4,6,1.2,7.7c1.4,3,4.2,4.6,8.4,4.6c5.3,0,9-2.2,11-6.5
			c1-2.4,1.5-5.5,1.5-9.3V9.5h15.9v60.1h-15.3v-8.5c-0.1,0.2-0.5,0.7-1.1,1.7c-0.6,0.9-1.3,1.7-2.1,2.4c-2.5,2.2-4.8,3.7-7.1,4.5
			c-2.3,0.8-5,1.2-8,1.2c-8.9,0-14.8-3.2-17.9-9.6c-1.7-3.5-2.6-8.7-2.6-15.6V9.5H784.7z"/>
		<path id="XMLID_117_" class="st2" d="M910.1,9.8c2.6,1,4.9,2.8,7,5.4c1.7,2.1,2.8,4.7,3.4,7.7c0.4,2,0.6,5,0.6,8.9L921,69.6h-16.1
			V31.4c0-2.3-0.4-4.2-1.1-5.6c-1.4-2.8-4-4.2-7.7-4.2c-4.3,0-7.3,1.8-9,5.4c-0.8,1.9-1.3,4.2-1.3,6.9v35.8H870V33.8
			c0-3.6-0.4-6.2-1.1-7.8c-1.3-2.9-3.9-4.4-7.8-4.4c-4.5,0-7.5,1.5-9,4.4c-0.8,1.7-1.3,4.1-1.3,7.4v36.1h-15.9v-60h15.3v8.8
			c1.9-3.1,3.8-5.3,5.5-6.7c3-2.4,7-3.5,11.8-3.5c4.6,0,8.3,1,11.1,3c2.3,1.9,4,4.3,5.2,7.2c2.1-3.5,4.6-6.1,7.7-7.8
			c3.2-1.7,6.8-2.5,10.8-2.5C904.9,8.2,907.5,8.7,910.1,9.8z"/>
		<path id="XMLID_119_" class="st2" d="M937,5.3c-1.9,1.9-4.3,2.8-7,2.8c-2.8,0-5.2-1-7.1-2.9c-1.9-1.9-2.9-4.3-2.9-7.1
			c0-2.9,1-5.3,3.1-7.3c1.9-1.8,4.2-2.7,6.9-2.7c2.8,0,5.1,1,7,2.9s2.9,4.3,2.9,7C940,0.9,939,3.3,937,5.3z M924.2-7.7
			c-1.6,1.6-2.4,3.5-2.4,5.8c0,2.3,0.8,4.3,2.4,5.9c1.6,1.6,3.5,2.4,5.8,2.4c2.3,0,4.2-0.8,5.8-2.4c1.6-1.6,2.4-3.6,2.4-5.9
			c0-2.2-0.8-4.1-2.4-5.8c-1.6-1.7-3.6-2.5-5.8-2.5C927.7-10.2,925.8-9.3,924.2-7.7z M925.7,3.7V-7.4c0.7,0,1.7,0,3.1,0
			c1.4,0,2.1,0,2.3,0c0.9,0.1,1.6,0.3,2.2,0.6c1,0.5,1.5,1.4,1.5,2.6c0,0.9-0.3,1.6-0.8,2c-0.5,0.4-1.2,0.7-1.9,0.7
			c0.7,0.1,1.2,0.4,1.6,0.6c0.6,0.5,1,1.4,1,2.5v1c0,0.1,0,0.2,0,0.3c0,0.1,0,0.2,0.1,0.3l0.1,0.3H932c-0.1-0.4-0.2-0.9-0.2-1.5
			c0-0.7-0.1-1.1-0.2-1.4c-0.1-0.4-0.4-0.7-0.8-0.8c-0.2-0.1-0.5-0.1-1-0.2l-0.6,0h-0.6v3.9H925.7z M930.9-5.2
			c-0.4-0.2-1-0.2-1.7-0.2h-0.7v3.2h1.1c0.7,0,1.2-0.1,1.6-0.4s0.6-0.7,0.6-1.3S931.5-5,930.9-5.2z"/>
	</g>
</g>
</svg>
