<?xml version="1.0" encoding="UTF-8" standalone="no"?>
<svg version="1.1" xmlns="http://www.w3.org/2000/svg" xmlns:xlink="http://www.w3.org/1999/xlink" xmlns:sketch="http://www.bohemiancoding.com/sketch/ns" width="186" height="61">
    <!-- Generator: Sketch 3.0.4 (8054) - http://www.bohemiancoding.com/sketch -->
    <!-- Fixed by: Gold, by hand, in ViM. -->
    <title>sprite_images</title>
    <desc>Created with Sketch. Fixed in ViM.</desc>
    <defs></defs>
    <g id="sprite" stroke="none" stroke-width="1" fill="none" fill-rule="evenodd" sketch:type="MSPage">
        <g id="sprite_images" sketch:type="MSArtboardGroup">
            <g id="logo_thinkst-3" sketch:type="MSLayerGroup" transform="translate(2.000000, 2.000000)">
                <!-- Logo -->
                <g id="Fill-1-+-Fill-10" transform="translate(3.222222, 0.000000)" sketch:type="MSShapeGroup">
                    <!-- red dot -->
                    <path d="M10.1625942,50.8264615 C10.1625942,53.5982959 7.90677323,55.844426 5.12173713,55.844426 C2.33769956,55.844426 0.0818785635,53.5982959 0.0818785635,50.8264615 C0.0818785635,48.0551243 2.33769956,45.8091598 5.12173713,45.8091598 C7.90677323,45.8091598 10.1625942,48.0551243 10.1625942,50.8264615" id="Fill-1" fill="#DC4138"></path>
                    <!-- green dots -->
                    <path d="M32.0749287,47.7386746 L31.899023,47.4888284 C30.3358414,45.0698935 29.3997297,42.2667456 29.3997297,39.3776095 C29.3997297,36.4886391 30.3358414,33.6833373 31.899023,31.264568 L32.0950655,30.9873846 C32.7005009,30.1051361 33.135356,29.1458462 33.1639802,28.0626272 C33.1879447,27.1212308 32.9461366,26.1808284 32.462687,25.3711479 C31.4703254,23.7042367 29.459308,22.6458698 27.5092003,22.9672899 C26.2264361,23.1830059 25.1536938,23.9287337 24.0756261,24.6015621 C20.9214708,26.6222012 16.9673352,27.339432 13.409279,26.0028876 C10.1379641,24.7730414 7.55612662,21.9892781 6.72203036,18.592497 C5.86247186,15.0868639 6.97765124,11.3340355 8.89680489,8.36388166 C8.89680489,8.36388166 9.33931525,7.69105325 9.46912273,7.44617751 C9.80196242,6.85602367 10.0452682,6.22710059 10.1138332,5.53671006 C10.1309745,5.37102959 10.1263147,5.20534911 10.1263147,5.03850888 C10.148615,4.24274556 9.98568993,3.4380355 9.57246946,2.66646154 C8.77398704,1.17715976 7.23626768,0.165514793 5.5457749,0.0246863905 C5.51182525,0.022035503 5.47854128,0.0258461538 5.44542373,0.0240236686 C5.33425528,0.0159053254 5.2229204,0.0215384615 5.11175194,0.0208757396 C4.99891929,0.0215384615 4.88775083,0.0159053254 4.77658238,0.0240236686 C4.74329841,0.0258461538 4.71018086,0.022035503 4.67623121,0.0246863905 C2.98557201,0.165514793 1.44868475,1.17715976 0.649370233,2.66646154 C0.236316179,3.4380355 0.0723926324,4.24274556 0.0956914106,5.03850888 C0.0956914106,5.20534911 0.0910316549,5.37102959 0.1073408,5.53671006 C0.177569974,6.22710059 0.420875787,6.85602367 0.752883377,7.44617751 C0.882524435,7.69105325 1.34750148,8.36388166 1.34750148,8.36388166 C2.91068308,10.7831479 3.84746039,13.5859645 3.84746039,16.4757633 C3.84746039,19.3644024 2.91068308,22.1697041 1.34750148,24.5891361 L1.1506268,24.864497 C0.707284339,25.5129704 0.333505368,26.1808284 0.169748241,27.0118817 C-0.0426034802,28.527858 0.275591262,30.0090414 1.29424713,31.1923314 C2.39561366,32.4693964 4.06447186,33.0989822 5.73582636,32.8857515 C6.60537005,32.7399527 7.47025398,32.3212781 8.16855165,31.8789112 C8.26890281,31.8003787 8.475097,31.6754556 8.475097,31.6754556 C8.54765605,31.6247574 9.17089837,31.2511479 9.17089837,31.2511479 C12.3250537,29.2310059 16.2776914,28.5131124 19.8355813,29.8494911 C23.1078947,31.0785089 25.6918956,33.8622722 26.523662,37.2605444 C27.3825548,40.7673373 26.270371,44.5175148 24.3512173,47.4888284 L24.1744795,47.7386746 C23.0654576,49.3167811 22.7194708,51.2267456 23.5851868,53.0069822 C24.3304148,54.5420118 25.8471653,55.6164497 27.5501396,55.8111243 C29.2769119,56.0129231 31.0246531,55.2782959 32.0950655,53.9168994 C33.2017575,52.5102722 33.4968199,50.5250888 32.7515918,48.8861775 C32.5676979,48.4814201 32.330716,48.1028402 32.0749287,47.7386746 Z" id="Fill-10" fill="#61BA66"></path>
                </g>
                <!-- applied research -->
                <g id="Group" transform="translate(71.962963, 37.692308)" fill="#858788" sketch:type="MSShapeGroup">
                    <path d="M2.06549594,5.59646973 C3.04216032,5.59646973 3.94990005,5.83312836 4.53804389,6.03506099 L4.53804389,5.28473873 C4.53804389,4.09622667 3.8928932,3.72688666 2.75653019,3.72688666 C2.04841375,3.72688666 1.4318658,3.85956805 0.72950964,4.11931042 L0.518167174,3.2882954 C0.649461695,3.20178152 1.75166032,2.89025125 2.75653019,2.89025125 C4.56664663,2.89025125 5.47458498,3.53639554 5.47458498,5.28473873 L5.47458498,7.43714793 C5.47458498,8.14692308 5.51450964,9.04718935 5.58303704,9.82601502 L4.7378658,9.895467 L4.59524937,9.09335685 C4.04703019,9.54338962 2.9049069,9.987802 1.91711923,9.987802 C0.986338407,9.987802 -0.00144926433,9.72805963 -0.00144926433,7.76614156 C-0.00144926433,6.30624488 0.529489092,5.59646973 2.06549594,5.59646973 L2.06549594,5.59646973 Z M2.1113795,9.17404961 C2.96211238,9.17404961 3.92705758,8.82197223 4.5493658,8.3374142 C4.52672197,7.92772781 4.51520142,7.43152754 4.51520142,6.75647838 C3.73855758,6.55434502 2.84213978,6.41584251 2.04841375,6.41584251 C1.02646169,6.41584251 0.969256215,7.01019891 0.969256215,7.86429768 C0.969256215,8.7876477 1.27176991,9.17404961 2.1113795,9.17404961 L2.1113795,9.17404961 Z" id="Fill-18"></path>
                    <path d="M13.5028179,6.06376513 L13.5028179,6.19644652 C13.5028179,8.40666545 13.411448,9.987802 11.138722,9.987802 C10.4419274,9.987802 9.62555758,9.81477424 8.97464663,9.46269686 L8.97464663,12.497909 L8.02658498,12.497909 L8.02658498,3.00546928 L8.79746854,3.00546928 L8.90611923,3.71524442 C9.34012608,3.38645152 10.3620781,2.89025125 11.4414343,2.89025125 C13.4742151,2.89025125 13.5028179,4.43084069 13.5028179,6.06376513 L13.5028179,6.06376513 Z M11.1558042,3.78449568 C10.4308042,3.78449568 9.44281786,4.11328858 8.97464663,4.45392444 L8.97464663,8.67202822 C9.3343658,8.83943559 10.1622562,9.12226172 11.0129891,9.12226172 C12.4063795,9.12226172 12.5321124,8.43557032 12.5321124,6.20246837 L12.5321124,6.07540737 C12.5321124,4.39029358 12.3608932,3.78449568 11.2416124,3.78449568 L11.1558042,3.78449568 L11.1558042,3.78449568 Z" id="Fill-19"></path>
                    <path d="M21.2911055,6.06376513 L21.2911055,6.19644652 C21.2911055,8.40666545 21.1999343,9.987802 18.9270096,9.987802 C18.2304137,9.987802 17.4138453,9.81477424 16.7631329,9.46269686 L16.7631329,12.497909 L15.8150713,12.497909 L15.8150713,3.00546928 L16.5859548,3.00546928 L16.6944069,3.71524442 C17.1286124,3.38645152 18.1505644,2.89025125 19.2299206,2.89025125 C21.2625028,2.89025125 21.2911055,4.43084069 21.2911055,6.06376513 L21.2911055,6.06376513 Z M18.9442905,3.78449568 C18.2190918,3.78449568 17.2311055,4.11328858 16.7631329,4.45392444 L16.7631329,8.67202822 C17.1226535,8.83943559 17.9507425,9.12226172 18.8014754,9.12226172 C20.1946672,9.12226172 20.3204001,8.43557032 20.3204001,6.20246837 L20.3204001,6.07540737 C20.3204001,4.39029358 20.1491809,3.78449568 19.0299001,3.78449568 L18.9442905,3.78449568 L18.9442905,3.78449568 Z" id="Fill-20"></path>
                    <path d="M23.8431055,0.0625921711 L24.7852083,-0.01830132 L24.7852083,9.87238325 L23.8546261,9.87238325 L23.8431055,0.0625921711" id="Fill-21"></path>
                    <path d="M27.5547083,0.651328175 C27.5547083,0.0912963132 27.737448,-0.0413850706 28.2171398,-0.0413850706 C28.7139137,-0.0413850706 28.8680507,0.0912963132 28.8680507,0.651328175 C28.8680507,1.2167797 28.7139137,1.36110332 28.2171398,1.36110332 C27.7203658,1.36110332 27.5547083,1.22842194 27.5547083,0.651328175 L27.5547083,0.651328175 Z M27.7545302,3.00546928 L28.6908727,3.00546928 L28.6908727,9.87238325 L27.7658521,9.87238325 L27.7545302,3.00546928 L27.7545302,3.00546928 Z" id="Fill-22"></path>
                    <path d="M31.2434685,6.11575376 C31.2434685,3.57694265 32.2425781,2.89025125 34.264037,2.89025125 C36.4795576,2.89025125 36.8279548,3.99224943 36.8279548,5.7694975 C36.8279548,6.17938462 36.8166329,6.48509376 36.7935918,6.76209877 C36.0799137,6.79682476 35.1546946,6.79682476 34.4296946,6.79682476 C33.7728247,6.79682476 32.6881055,6.74483614 32.214174,6.66976377 C32.214174,8.28562631 32.4596809,9.1626081 34.121222,9.1626081 C34.9892357,9.1626081 35.8058042,8.9779381 36.4795576,8.68367046 L36.7594274,9.50866363 C36.7594274,9.50866363 35.6230644,9.987802 34.1498247,9.987802 C33.0478247,9.987802 32.2827014,9.79169049 31.7972494,9.2087756 C31.3574822,8.67784934 31.2434685,7.63928129 31.2434685,6.41022212 L31.2434685,6.11575376 L31.2434685,6.11575376 Z M35.8630096,5.99471461 L35.8630096,5.4407046 C35.8630096,4.28651707 35.4975302,3.71524442 34.1726672,3.71524442 C32.6309001,3.71524442 32.214174,4.29233819 32.214174,5.99471461 L35.8630096,5.99471461 L35.8630096,5.99471461 Z" id="Fill-23"></path>
                    <path d="M44.5191124,6.71593127 C44.5191124,8.14692308 44.559037,9.04718935 44.6275644,9.82601502 L43.7768316,9.895467 L43.6397768,9.10499909 C43.2059685,9.43379199 42.2978316,9.987802 41.1900713,9.987802 C39.1745713,9.987802 39.0317562,8.36049795 39.0317562,6.68120528 C39.0317562,4.47118707 39.0202357,2.89025125 41.2929617,2.89025125 C42.0982083,2.89025125 42.9030576,3.01711152 43.571448,3.31137915 L43.571448,0.0509499317 L44.5191124,-0.0413850706 L44.5191124,6.71593127 L44.5191124,6.71593127 Z M43.571448,4.10184706 C43.0003864,3.91155667 42.3093521,3.75559081 41.5841535,3.75559081 C40.3335781,3.75559081 40.0024617,3.88827219 40.0024617,6.67558489 L40.0024617,6.80244515 C40.0024617,8.48755894 40.2878932,9.12226172 41.407174,9.12226172 L41.4927836,9.12226172 C42.212222,9.12226172 43.125722,8.70675421 43.5940918,8.3374142 L43.5940918,8.32597269 C43.571448,7.89882294 43.5654891,7.36789668 43.5654891,6.66976377 L43.571448,4.10184706 L43.571448,4.10184706 Z" id="Fill-24"></path>
                    <path d="M49.9319822,3.00546928 L50.7654343,3.00546928 L50.8568042,3.91717706 C50.8568042,3.91717706 51.3424548,3.13253027 51.9989274,2.95348066 C52.1987494,2.90169276 52.3588453,2.89025125 52.5243042,2.89025125 C52.7813316,2.89025125 53.1352905,2.99382704 53.1352905,2.99382704 L53.0494822,3.91155667 C52.7926535,3.84792581 52.5243042,3.84230542 52.3699685,3.84230542 C51.7818247,3.84230542 51.2910096,4.17691944 50.8796466,4.58098543 L50.8796466,9.87238325 L49.9319822,9.87238325 L49.9319822,3.00546928" id="Fill-25"></path>
                    <path d="M54.6140918,6.11575376 C54.6140918,3.57694265 55.6134001,2.89025125 57.6346603,2.89025125 C59.8503795,2.89025125 60.1985781,3.99224943 60.1985781,5.7694975 C60.1985781,6.17938462 60.1872562,6.48509376 60.1644137,6.76209877 C59.450537,6.79682476 58.5255165,6.79682476 57.8003179,6.79682476 C57.1438453,6.79682476 56.0587288,6.74483614 55.5847973,6.66976377 C55.5847973,8.28562631 55.8303042,9.1626081 57.4920439,9.1626081 C58.3600576,9.1626081 59.1764274,8.9779381 59.8503795,8.68367046 L60.1300507,9.50866363 C60.1300507,9.50866363 58.9936877,9.987802 57.520448,9.987802 C56.418448,9.987802 55.6533247,9.79169049 55.1678727,9.2087756 C54.7281055,8.67784934 54.6140918,7.63928129 54.6140918,6.41022212 L54.6140918,6.11575376 L54.6140918,6.11575376 Z M59.2336329,5.99471461 L59.2336329,5.4407046 C59.2336329,4.28651707 58.8681535,3.71524442 57.5432905,3.71524442 C56.001722,3.71524442 55.5847973,4.29233819 55.5847973,5.99471461 L59.2336329,5.99471461 L59.2336329,5.99471461 Z" id="Fill-26"></path>
                    <path d="M62.6079617,8.51064269 C63.1220165,8.80491033 63.9614274,9.17404961 64.9722562,9.17404961 C65.9085987,9.17404961 66.1884685,8.75874283 66.1884685,7.89882294 C66.1884685,6.89478015 65.8057083,6.99293628 64.5608932,6.77374101 C63.2475507,6.5429035 62.3968179,6.32932863 62.4196603,4.86361083 L62.4196603,4.71928721 C62.4196603,3.18451889 63.5160987,2.87278789 64.5839343,2.89025125 C65.5544411,2.90169276 66.439537,3.07492126 66.9478316,3.2882954 L66.6792836,4.1596568 C66.1485439,3.9288193 65.1377151,3.69216067 64.4981261,3.69216067 C63.750085,3.69216067 63.3788453,3.85956805 63.367722,4.71928721 C63.3562014,5.46378835 63.6358727,5.6253746 64.0527973,5.74641375 C65.7371809,6.23117251 67.1820165,5.68880473 67.1534137,7.89320255 C67.1305713,9.69333364 66.0911398,9.987802 64.7607151,9.987802 C63.7671672,9.987802 62.802222,9.66462949 62.1969959,9.30693173 L62.6079617,8.51064269" id="Fill-27"></path>
                    <path d="M69.2201603,6.11575376 C69.2201603,3.57694265 70.2194685,2.89025125 72.2407288,2.89025125 C74.456448,2.89025125 74.8048453,3.99224943 74.8048453,5.7694975 C74.8048453,6.17938462 74.7933247,6.48509376 74.7704822,6.76209877 C74.0566055,6.79682476 73.131585,6.79682476 72.4063864,6.79682476 C71.7497151,6.79682476 70.6647973,6.74483614 70.1908658,6.66976377 C70.1908658,8.28562631 70.4363727,9.1626081 72.0981124,9.1626081 C72.9661261,9.1626081 73.7824959,8.9779381 74.456448,8.68367046 L74.7361192,9.50866363 C74.7361192,9.50866363 73.5997562,9.987802 72.1265165,9.987802 C71.0245165,9.987802 70.2593932,9.79169049 69.7741398,9.2087756 C69.3343727,8.67784934 69.2201603,7.63928129 69.2201603,6.41022212 L69.2201603,6.11575376 L69.2201603,6.11575376 Z M73.8397014,5.99471461 L73.8397014,5.4407046 C73.8397014,4.28651707 73.474222,3.71524442 72.149359,3.71524442 C70.6077905,3.71524442 70.1908658,4.29233819 70.1908658,5.99471461 L73.8397014,5.99471461 L73.8397014,5.99471461 Z" id="Fill-28"></path>
                    <path d="M78.9955439,5.59646973 C79.9720096,5.59646973 80.879948,5.83312836 81.4680918,6.03506099 L81.4680918,5.28473873 C81.4680918,4.09622667 80.8229411,3.72688666 79.6865781,3.72688666 C78.9784617,3.72688666 78.3617151,3.85956805 77.6595576,4.11931042 L77.4480165,3.2882954 C77.579311,3.20178152 78.6815096,2.89025125 79.6865781,2.89025125 C81.4966946,2.89025125 82.4044343,3.53639554 82.4044343,5.28473873 L82.4044343,7.43714793 C82.4044343,8.14692308 82.4445576,9.04718935 82.5128864,9.82601502 L81.6679137,9.895467 L81.5252973,9.09335685 C80.9770781,9.54338962 79.8349548,9.987802 78.8471672,9.987802 C77.9163864,9.987802 76.9285987,9.72805963 76.9285987,7.76614156 C76.9285987,6.30624488 77.459537,5.59646973 78.9955439,5.59646973 L78.9955439,5.59646973 Z M79.0412288,9.17404961 C79.8921603,9.17404961 80.8571055,8.82197223 81.4794137,8.3374142 C81.4565713,7.92772781 81.4452494,7.43152754 81.4452494,6.75647838 C80.6686055,6.55434502 79.7719891,6.41584251 78.9784617,6.41584251 C77.956311,6.41584251 77.8993042,7.01019891 77.8993042,7.86429768 C77.8993042,8.7876477 78.2018179,9.17404961 79.0412288,9.17404961 L79.0412288,9.17404961 Z" id="Fill-29"></path>
                    <path d="M84.9911946,3.00546928 L85.8246466,3.00546928 L85.9160165,3.91717706 C85.9160165,3.91717706 86.4014685,3.13253027 87.0581398,2.95348066 C87.2579617,2.90169276 87.417859,2.89025125 87.5835165,2.89025125 C87.8405439,2.89025125 88.1945028,2.99382704 88.1945028,2.99382704 L88.1086946,3.91155667 C87.8518658,3.84792581 87.5835165,3.84230542 87.4291809,3.84230542 C86.841037,3.84230542 86.350222,4.17691944 85.938859,4.58098543 L85.938859,9.87238325 L84.9911946,9.87238325 L84.9911946,3.00546928" id="Fill-30"></path>
                    <path d="M94.5554343,3.29993764 L94.2700028,4.15383569 C93.8816809,3.99807055 93.0821946,3.72688666 92.311311,3.72688666 C90.8837562,3.72688666 90.6269274,4.5637228 90.6269274,6.45618889 C90.6269274,8.07767183 90.7296192,9.15678698 92.2429822,9.15678698 C93.3563042,9.15678698 94.3043658,8.7876477 94.3043658,8.7876477 L94.5895987,9.5666741 C94.5895987,9.5666741 93.8473179,9.987802 92.4142014,9.987802 C91.3692083,9.987802 90.7010165,9.79731088 90.2100028,9.2087756 C89.764674,8.68367046 89.6560233,7.63928129 89.6560233,6.41022212 C89.6560233,4.70764497 89.7873179,2.89025125 92.5111329,2.89025125 C93.3849069,2.89025125 94.2700028,3.12670915 94.5554343,3.29993764 Z" id="Fill-31"></path>
                    <path d="M96.7022288,0.0509499317 L97.6272494,-0.0413850706 L97.6272494,3.71524442 C97.9528042,3.44426127 98.8206192,2.89025125 99.9627425,2.89025125 C101.555756,2.89025125 101.978243,3.4785858 101.978243,5.08862722 L101.978243,9.87238325 L101.019058,9.87238325 L101.019058,5.26165498 C101.019058,4.21164543 100.8534,3.78449568 99.905537,3.78449568 C99.1346535,3.78449568 98.3067631,4.05567956 97.6500918,4.44810332 L97.6500918,9.87238325 L96.7022288,9.87238325 L96.7022288,0.0509499317" id="Fill-32"></path>
                </g>
                <!-- thinkst -->
                <g id="Group" transform="translate(56.925926, 6.461538)" fill="#858788" sketch:type="MSShapeGroup">
                    <path d="M1.88349188,21.9078939 L1.88349188,10.489868 L-0.41148072,10.489868 L-0.41148072,8.50888075 L1.88349188,8.25134638 L2.29783435,3.87085344 L4.51295764,3.87085344 L4.51295764,8.25134638 L10.0428206,8.25134638 L10.0428206,10.489868 L4.51295764,10.489868 L4.51295764,21.8595184 C4.51295764,24.1947911 4.65636859,25.3863141 6.83971106,25.3863141 C8.01897818,25.3863141 9.48506722,24.8549863 10.4251837,24.4041507 L11.3337179,26.4975457 C10.5209234,26.8841484 8.6722727,27.737645 6.5368001,27.737645 C5.23001243,27.737645 3.57264257,27.4156768 2.69608777,26.1272021 C1.94725216,24.9675949 1.88349188,23.7600137 1.88349188,21.9078939" id="Fill-12"></path>
                    <path d="M15.6193617,0.00562994993 L18.2009576,-0.251904415 L18.2009576,10.2321329 C19.1092933,9.47518662 21.5315878,7.92917751 24.7190056,7.92917751 C29.1651426,7.92917751 30.3446083,9.57193764 30.3446083,14.0650391 L30.3446083,27.4156768 L27.6672727,27.4156768 L27.6672727,14.5481921 C27.6672727,11.6171579 27.2050604,10.4254342 24.5597042,10.4254342 C22.4081426,10.4254342 20.0974782,11.1823805 18.2647179,12.2773532 L18.2647179,27.4156768 L15.6193617,27.4156768 L15.6193617,0.00562994993" id="Fill-13"></path>
                    <path d="M37.3864439,1.68070733 C37.3864439,0.118439235 37.8963275,-0.251904415 39.234896,-0.251904415 C40.621533,-0.251904415 41.0517659,0.118439235 41.0517659,1.68070733 C41.0517659,3.25883295 40.621533,3.66149386 39.234896,3.66149386 C37.8486563,3.66149386 37.3864439,3.2911502 37.3864439,1.68070733 L37.3864439,1.68070733 Z M37.9441974,8.25134638 L40.5575741,8.25134638 L40.5575741,27.4156768 L37.9759782,27.4156768 L37.9441974,8.25134638 L37.9441974,8.25134638 Z" id="Fill-14"></path>
                    <path d="M48.2221152,8.25134638 L50.5488686,8.25134638 L50.8039097,10.2321329 C51.7440261,9.47518662 54.1663206,7.92917751 57.3696289,7.92917751 C61.7680946,7.92917751 62.9791426,9.57193764 62.9791426,14.0650391 L62.9791426,27.4156768 L60.301807,27.4156768 L60.301807,14.5642503 C60.301807,11.6332162 59.8397933,10.4414925 57.1942385,10.4414925 C55.0428754,10.4414925 52.7320124,11.1984388 50.86767,12.2936122 L50.86767,27.4156768 L48.2221152,27.4156768 L48.2221152,8.25134638" id="Fill-15"></path>
                    <path d="M88.5861426,23.6148871 C90.0202522,24.4362672 92.362896,25.4670068 95.1838412,25.4670068 C97.7972179,25.4670068 98.578033,24.3073996 98.578033,21.9078939 C98.578033,19.1055266 97.510396,19.3795207 94.0363549,18.7675002 C90.371033,18.1233632 87.9964097,17.5276017 88.06017,13.4369604 L88.06017,13.0342995 C88.06017,8.75055758 91.1198686,7.880802 94.1001152,7.92917751 C96.8092316,7.96129404 99.279396,8.4446477 100.697615,9.04040919 L99.9487796,11.4722321 C98.4666015,10.8278944 95.6458549,10.1676991 93.8609645,10.1676991 C91.7733617,10.1676991 90.7375056,10.6347938 90.7057248,13.0342995 C90.6739439,15.1118371 91.4545604,15.5626727 92.6181357,15.9011006 C97.3191152,17.2538084 101.35091,15.7399158 101.271458,21.891635 C101.207697,26.9162649 98.3071015,27.737645 94.5941083,27.737645 C91.8212316,27.737645 89.127807,26.8357729 87.4386563,25.8373505 L88.5861426,23.6148871" id="Fill-16"></path>
                    <path d="M107.468917,21.9078939 L107.468917,10.489868 L105.173944,10.489868 L105.173944,8.50888075 L107.468917,8.25134638 L107.883259,3.87085344 L110.098382,3.87085344 L110.098382,8.25134638 L115.628245,8.25134638 L115.628245,10.489868 L110.098382,10.489868 L110.098382,21.8595184 C110.098382,24.1947911 110.241793,25.3863141 112.424937,25.3863141 C113.604403,25.3863141 115.070492,24.8549863 116.010807,24.4041507 L116.918944,26.4975457 C116.106348,26.8841484 114.257697,27.737645 112.122225,27.737645 C110.815636,27.737645 109.158067,27.4156768 108.281711,26.1272021 C107.532677,24.9675949 107.468917,23.7600137 107.468917,21.9078939" id="Fill-17"></path>
                    <path d="M75.5683206,17.8134388 L83.8291494,27.4839244 L80.5642659,27.4839244 L72.657396,18.1384178 L72.657396,27.4839244 L69.9824439,27.4839244 L69.9824439,0.422944015 L72.657396,-0.0646249431 L72.657396,17.406964 L80.4069508,8.22424807 L83.6325056,8.22424807 L75.5683206,17.8134388" id="Fill-33"></path>
                </g>
            </g>
        </g>
    </g>
</svg>
